<svg id="light" enable-background="new 0 0 24 24" height="512" viewBox="0 0 24 24" width="512" xmlns="http://www.w3.org/2000/svg"><path d="m23.5 21h-23c-.276 0-.5-.224-.5-.5s.224-.5.5-.5h23c.276 0 .5.224.5.5s-.224.5-.5.5z"/><path d="m6.5 21h-5c-.276 0-.5-.224-.5-.5v-12.5c0-.551.449-1 1-1h4c.551 0 1 .449 1 1v12.5c0 .276-.224.5-.5.5zm-4.5-1h4v-12h-4z"/><path d="m14.5 21h-5c-.276 0-.5-.224-.5-.5v-16.5c0-.551.449-1 1-1h4c.551 0 1 .449 1 1v16.5c0 .276-.224.5-.5.5zm-4.5-1h4v-16h-4z"/><path d="m22.5 21h-5c-.276 0-.5-.224-.5-.5v-9.5c0-.551.449-1 1-1h4c.551 0 1 .449 1 1v9.5c0 .276-.224.5-.5.5zm-4.5-1h4v-9h-4z"/></svg>