<svg width="335" height="53" viewBox="0 0 335 53" fill="none" xmlns="http://www.w3.org/2000/svg">
<path d="M18.224 52.448C14.9387 52.448 11.9947 51.9147 9.392 50.848C6.78933 49.7813 4.69867 48.2027 3.12 46.112C1.584 44.0213 0.773334 41.504 0.688 38.56H12.336C12.5067 40.224 13.0827 41.504 14.064 42.4C15.0453 43.2533 16.3253 43.68 17.904 43.68C19.5253 43.68 20.8053 43.3173 21.744 42.592C22.6827 41.824 23.152 40.7787 23.152 39.456C23.152 38.3467 22.768 37.4293 22 36.704C21.2747 35.9787 20.3573 35.3813 19.248 34.912C18.1813 34.4427 16.6453 33.9093 14.64 33.312C11.7387 32.416 9.37067 31.52 7.536 30.624C5.70133 29.728 4.12267 28.4053 2.8 26.656C1.47733 24.9067 0.816 22.624 0.816 19.808C0.816 15.6267 2.33067 12.3627 5.36 10.016C8.38933 7.62667 12.336 6.432 17.2 6.432C22.1493 6.432 26.1387 7.62667 29.168 10.016C32.1973 12.3627 33.8187 15.648 34.032 19.872H22.192C22.1067 18.4213 21.5733 17.2907 20.592 16.48C19.6107 15.6267 18.352 15.2 16.816 15.2C15.4933 15.2 14.4267 15.5627 13.616 16.288C12.8053 16.9707 12.4 17.9733 12.4 19.296C12.4 20.7467 13.0827 21.8773 14.448 22.688C15.8133 23.4987 17.9467 24.3733 20.848 25.312C23.7493 26.2933 26.096 27.232 27.888 28.128C29.7227 29.024 31.3013 30.3253 32.624 32.032C33.9467 33.7387 34.608 35.936 34.608 38.624C34.608 41.184 33.9467 43.5093 32.624 45.6C31.344 47.6907 29.4667 49.3547 26.992 50.592C24.5173 51.8293 21.5947 52.448 18.224 52.448ZM80.255 7.072V52H69.311V33.504H52.287V52H41.343V7.072H52.287V24.672H69.311V7.072H80.255ZM109.404 52.448C105.18 52.448 101.297 51.4667 97.7555 49.504C94.2568 47.5413 91.4622 44.8107 89.3715 41.312C87.3235 37.7707 86.2995 33.8027 86.2995 29.408C86.2995 25.0133 87.3235 21.0667 89.3715 17.568C91.4622 14.0693 94.2568 11.3387 97.7555 9.376C101.297 7.41333 105.18 6.432 109.404 6.432C113.628 6.432 117.489 7.41333 120.988 9.376C124.529 11.3387 127.302 14.0693 129.308 17.568C131.356 21.0667 132.38 25.0133 132.38 29.408C132.38 33.8027 131.356 37.7707 129.308 41.312C127.26 44.8107 124.486 47.5413 120.988 49.504C117.489 51.4667 113.628 52.448 109.404 52.448ZM109.404 42.464C112.988 42.464 115.846 41.2693 117.979 38.88C120.156 36.4907 121.244 33.3333 121.244 29.408C121.244 25.44 120.156 22.2827 117.979 19.936C115.846 17.5467 112.988 16.352 109.404 16.352C105.777 16.352 102.876 17.5253 100.7 19.872C98.5662 22.2187 97.4995 25.3973 97.4995 29.408C97.4995 33.376 98.5662 36.5547 100.7 38.944C102.876 41.2907 105.777 42.464 109.404 42.464ZM161.38 52L152.036 35.04H149.412V52H138.468V7.072H156.836C160.377 7.072 163.385 7.69066 165.86 8.928C168.377 10.1653 170.255 11.872 171.492 14.048C172.729 16.1813 173.348 18.5707 173.348 21.216C173.348 24.2027 172.495 26.8693 170.788 29.216C169.124 31.5627 166.649 33.2267 163.364 34.208L173.732 52H161.38ZM149.412 27.296H156.196C158.201 27.296 159.695 26.8053 160.676 25.824C161.7 24.8427 162.212 23.456 162.212 21.664C162.212 19.9573 161.7 18.6133 160.676 17.632C159.695 16.6507 158.201 16.16 156.196 16.16H149.412V27.296ZM212.538 7.072V15.84H200.634V52H189.69V15.84H177.786V7.072H212.538ZM228.975 4.64V52H218.031V4.64H228.975ZM242.41 12.576C240.49 12.576 238.911 12.0213 237.674 10.912C236.479 9.76 235.882 8.352 235.882 6.688C235.882 4.98133 236.479 3.57333 237.674 2.464C238.911 1.312 240.49 0.735996 242.41 0.735996C244.287 0.735996 245.823 1.312 247.018 2.464C248.255 3.57333 248.874 4.98133 248.874 6.688C248.874 8.352 248.255 9.76 247.018 10.912C245.823 12.0213 244.287 12.576 242.41 12.576ZM247.85 16.288V52H236.906V16.288H247.85ZM277.541 15.904C281.722 15.904 285.05 17.2693 287.525 20C290.042 22.688 291.301 26.4 291.301 31.136V52H280.421V32.608C280.421 30.2187 279.802 28.3627 278.565 27.04C277.327 25.7173 275.663 25.056 273.573 25.056C271.482 25.056 269.818 25.7173 268.581 27.04C267.343 28.3627 266.725 30.2187 266.725 32.608V52H255.781V16.288H266.725V21.024C267.834 19.4453 269.327 18.208 271.205 17.312C273.082 16.3733 275.194 15.904 277.541 15.904ZM320.73 52L309.85 37.024V52H298.906V4.64H309.85V30.816L320.666 16.288H334.17L319.322 34.208L334.298 52H320.73Z" fill="black"/>
</svg>
