<svg id="Capa_1" enable-background="new 0 0 512 512" height="512" viewBox="0 0 512 512" width="512" xmlns="http://www.w3.org/2000/svg"><g><path d="m450.317 68.753-56.292-32.5c-2.891-1.67-6.259-2.111-9.485-1.249-3.225.864-5.92 2.933-7.59 5.824l-19.998 34.637c-.001.001-.002.002-.002.003s-.001.002-.002.004l-53.449 92.577v-105.549c0-8.798-6.534-16.081-15-17.3v-27.7c0-9.649-7.851-17.5-17.5-17.5h-30c-9.649 0-17.5 7.851-17.5 17.5v27.7c-8.466 1.22-15 8.502-15 17.3v35c0 4.143 3.357 7.5 7.5 7.5h72.5v128h-65v-100.5c0-4.143-3.357-7.5-7.5-7.5s-7.5 3.357-7.5 7.5v41.375l-72.78-126.061c-2.337-4.049-6.111-6.944-10.626-8.154-4.518-1.207-9.232-.587-13.279 1.749l-47.632 27.5c-8.356 4.825-11.23 15.549-6.405 23.905l80.977 140.257c-5.931.445-11.461 3.212-15.371 7.759-4.278 4.976-6.169 11.552-5.186 18.04l34.166 225.498c2.425 16.011 15.94 27.632 32.133 27.632h143.006c16.193 0 29.708-11.621 32.133-27.632l34.166-225.498c.983-6.488-.907-13.064-5.186-18.04-4.279-4.977-10.498-7.83-17.061-7.83h-1.632l84.97-147.172c3.447-5.969 1.394-13.629-4.575-17.075zm-209.318-53.753h30c1.379 0 2.5 1.121 2.5 2.5v27.5h-35v-27.5c0-1.379 1.121-2.5 2.5-2.5zm-17.5 75v-27.5c0-1.379 1.121-2.5 2.5-2.5h60c1.379 0 2.5 1.121 2.5 2.5v27.5zm-15 113.83v29.17h-9.166l-50.013-86.626 19.485-11.25 39.45 68.33c.076.131.162.252.244.376zm-52.466 29.17-39.188-67.876 19.486-11.25 45.682 79.126zm-54.188-93.856 51.961-30 7.5 12.99-51.961 30zm-30.163-57.245 47.633-27.5c1.62-.644 2.331-.45 3.414.915l23.578 40.838-51.961 30-23.579-40.838c-.809-1.203-.164-2.793.915-3.415zm273.123 400.223c-1.307 8.621-8.583 14.878-17.303 14.878h-143.006c-8.72 0-15.996-6.257-17.303-14.878l-24.109-159.122h168.861c4.143 0 7.5-3.357 7.5-7.5s-3.357-7.5-7.5-7.5h-171.133l-2.273-15h234.92l-2.273 15h-24.241c-4.143 0-7.5 3.357-7.5 7.5s3.357 7.5 7.5 7.5h21.969zm34.166-225.498-3.239 21.376h-239.466l-3.239-21.376c-.782-4.393 2.955-8.74 7.416-8.624h231.111c4.719 0 8.082 3.166 7.417 8.624zm-26.369-23.624h-49.103v-23.846l14.677 8.474c3.523 2.052 8.163.875 10.245-2.745 2.071-3.587.842-8.174-2.745-10.245l-19.485-11.25 15-25.981 19.485 11.25c3.524 2.051 8.163.875 10.245-2.745 2.071-3.587.842-8.174-2.745-10.245l-19.485-11.25 15-25.98 19.485 11.25c3.524 2.051 8.163.875 10.245-2.745 2.071-3.587.842-8.174-2.745-10.245l-19.485-11.25 15-25.981 19.485 11.25c3.524 2.051 8.163.875 10.245-2.745 2.071-3.587.842-8.174-2.745-10.245l-19.485-11.25 15-25.98 51.962 30z"/></g></svg>